<svg xmlns="http://www.w3.org/2000/svg" version="1.1" xmlns:xlink="http://www.w3.org/1999/xlink" xmlns:svgjs="http://svgjs.com/svgjs" width="512" height="512" x="0" y="0" viewBox="0 0 512 512" style="enable-background:new 0 0 512 512" xml:space="preserve" class=""><circle r="256" cx="256" cy="256" fill="#141b2e" shape="circle"></circle><g transform="matrix(0.7,0,0,0.7,76.79996309280398,76.80014934539795)"><path d="m508.07 233.553-81.668-81.666a10 10 0 0 0-7.07-2.93H92.666a10.004 10.004 0 0 0-7.071 2.93L3.929 233.553a9.998 9.998 0 0 0 .034 14.176l246.184 243.818a9.97 9.97 0 0 0 7.037 2.895c2.56 0 5.119-.977 7.07-2.93L508.07 247.695a9.996 9.996 0 0 0 0-14.142zm-184.277 17.07-67.689 203.068-67.883-203.068zm-125.315-20L256 173.101l57.522 57.522zm81.664-61.666H395.19l-57.524 57.524zm-105.808 57.524-57.524-57.524h115.049zm-7.201 24.142 65.244 195.175-197.07-195.175zm177.74 0h131.985L278.883 448.6zm16.936-20 57.525-57.523 57.524 57.523zM92.666 173.1l57.524 57.523H35.143zM246 107.697V27.559c0-5.521 4.478-10 10-10s10 4.479 10 10v80.139c0 5.523-4.478 10-10 10s-10-4.477-10-10.001zm89.25 8.961 39.844-64.721c2.895-4.703 9.053-6.168 13.758-3.273 4.703 2.895 6.169 9.055 3.273 13.758l-39.844 64.721a9.996 9.996 0 0 1-13.757 3.274c-4.704-2.896-6.17-9.056-3.274-13.759zM119.875 62.422c-2.896-4.703-1.43-10.863 3.273-13.758 4.701-2.895 10.862-1.432 13.758 3.273l39.844 64.721c2.896 4.703 1.43 10.863-3.273 13.758a9.99 9.99 0 0 1-13.757-3.274z" fill="#ffffff" data-original="#000000" class=""></path></g></svg>